<?xml version='1.0' encoding='utf-8'?>
<svg xmlns="http://www.w3.org/2000/svg" width="91.44mm" height="91.44mm" version="1.1" style="shape-rendering:geometricPrecision; text-rendering:geometricPrecision; image-rendering:optimizeQuality; fill-rule:evenodd; clip-rule:evenodd" viewBox="0 0 9144 9144"> <defs> <style type="text/css">  .fil0 {fill:#F0F0F0} .fil1 {fill:#011627;fill-rule:nonzero}  </style> </defs> <g id="Layer_x0020_1"> <metadata id="CorelCorpID_0Corel-Layer"/> <g id="_2744591186016"> <polygon class="fil0" points="0,0 9144,0 9144,9144 0,9144 "/> <path class="fil1" d="M5196 4969l760 -1388c9,-35 18,-79 26,-123 9,-43 18,-87 18,-131 0,-218 -96,-410 -236,-550 -148,-148 -349,-236 -568,-236 -218,0 -419,88 -567,236 -26,26 -61,61 -88,96 -87,131 -148,289 -148,454 0,44 9,88 17,131 0,44 18,88 27,123l759 1388zm-2655 734l1206 -1616 0 -1493 -1206 524 0 2585zm1380 -1624l1188 1152 0 -52 -830 -1520 0 -17c-26,-44 -34,-96 -43,-157 -9,-53 -18,-105 -18,-158 0,-174 53,-331 131,-471l-428 -245 0 1468 0 0zm1363 1240l1319 -385 0 -2340 -551 262c79,140 123,306 123,471 0,53 -9,105 -18,158 -9,52 -17,104 -35,157 -9,9 -9,9 -9,17l-829 1520 0 140 0 0zm1319 -201l-1319 384 9 1074 1310 -375 0 -1083zm-1494 358l-1188 -1153 0 1878 1197 367 -9 -1092zm-1362 -1092l-1206 1616 0 568 1206 -367 0 -1817zm131 -2000l576 323c18,-17 35,-43 52,-61 175,-174 420,-279 690,-279 271,0 516,105 690,279 18,26 44,44 62,70l698 -332c9,-8 26,-17 44,-17 52,0 87,43 87,87l0 3808c0,44 -26,79 -61,87l-1485 428 -52 0 -1345 -419 -1354 419c-43,9 -96,-17 -104,-61 -9,-9 -9,-17 -9,-26l0 -3633c0,-35 26,-70 61,-79l1371 -602c26,-9 52,-9 79,8zm1318 367c158,0 297,61 393,166 105,96 166,236 166,393 0,35 -8,61 -8,96 -9,26 -18,61 -27,87 -34,114 -113,201 -200,271 -96,61 -201,105 -324,105 -122,0 -227,-44 -323,-105 -96,-70 -166,-157 -201,-271 -8,-26 -17,-61 -26,-87 -8,-35 -8,-61 -8,-96 0,-157 61,-297 165,-393 97,-105 236,-166 393,-166l0 0zm271 288c-70,-70 -166,-113 -271,-113 -104,0 -200,43 -270,113 -70,70 -114,166 -114,271 0,26 9,44 9,61 0,26 9,44 17,61 27,79 70,140 140,192 61,44 140,70 218,70 79,0 158,-26 219,-70 61,-52 113,-113 140,-192 8,-17 17,-35 17,-61 0,-17 9,-35 9,-61 0,-105 -44,-201 -114,-271z"/> </g> </g> </svg>